<svg width="13" height="13" viewBox="0 0 13 13" fill="none" xmlns="http://www.w3.org/2000/svg">
<path d="M3.43596 11.173L3.64847 11.2784C4.53408 11.8054 5.52588 12.0513 6.51772 12.0513C9.63488 12.0513 12.1853 9.52161 12.1853 6.42972C12.1853 4.95407 11.5831 3.51352 10.5204 2.45945C9.45776 1.40538 8.04083 0.808105 6.51772 0.808105C3.40056 0.808105 0.850113 3.33783 0.885558 6.46488C0.885558 7.5189 1.20436 8.53786 1.73567 9.41619L1.87735 9.62704L1.31064 11.7L3.43596 11.173Z" fill="#00E676"/>
<path d="M11.1226 1.89729C9.91824 0.667589 8.2534 0 6.55312 0C2.94009 0 0.0354448 2.91621 0.0708387 6.46484C0.0708387 7.58918 0.389638 8.6784 0.921005 9.66216L0 13L3.43596 12.1216C4.39236 12.6487 5.45499 12.8946 6.51772 12.8946C10.0954 12.8946 13 9.97837 13 6.42979C13 4.70813 12.327 3.09189 11.1226 1.89729H11.1226ZM6.55312 11.8055C5.59672 11.8055 4.64032 11.5596 3.8256 11.0676L3.61308 10.9622L1.5586 11.4892L2.08992 9.48657L1.94824 9.27573C0.389638 6.78116 1.13352 3.47837 3.68392 1.9324C6.23432 0.38648 9.5286 1.12433 11.0872 3.65406C12.6458 6.18378 11.9019 9.45136 9.35153 10.9973C8.53675 11.5243 7.54496 11.8054 6.55312 11.8054V11.8055ZM9.67027 7.90549L9.28064 7.72981C9.28064 7.72981 8.71393 7.48385 8.35968 7.30817C8.32424 7.30817 8.28884 7.27301 8.2534 7.27301C8.14711 7.27301 8.07628 7.30817 8.00544 7.34333C8.00544 7.34333 7.97004 7.37843 7.47412 7.9406C7.43868 8.01086 7.36784 8.04602 7.297 8.04602H7.26155C7.22616 8.04602 7.15532 8.01086 7.11988 7.97576L6.94275 7.90549C6.55312 7.72981 6.19892 7.51896 5.91552 7.2379C5.84468 7.16764 5.73839 7.09737 5.66756 7.02711C5.4196 6.78116 5.17163 6.50005 4.99456 6.18383L4.95912 6.11357C4.92372 6.07841 4.92372 6.04331 4.88828 5.97304C4.88828 5.90278 4.88828 5.83251 4.92372 5.79735C4.92372 5.79735 5.0654 5.62167 5.17163 5.5163C5.24252 5.44598 5.27792 5.34061 5.34876 5.27035C5.4196 5.16492 5.45504 5.02439 5.41959 4.91897C5.3842 4.74329 4.95912 3.79464 4.85289 3.58384C4.782 3.47842 4.71121 3.44332 4.60492 3.40816H4.21529C4.1444 3.40816 4.07361 3.44332 4.00272 3.44332L3.96727 3.47842C3.89644 3.51358 3.8256 3.58384 3.75476 3.61895C3.68392 3.68927 3.64847 3.75948 3.57764 3.8298C3.32967 4.14601 3.188 4.53249 3.188 4.91897C3.188 5.20003 3.25884 5.48114 3.36512 5.72709L3.40056 5.83251C3.71936 6.50005 4.1444 7.09737 4.71121 7.62438L4.85289 7.76491C4.95912 7.87033 5.0654 7.9406 5.13624 8.04597C5.88012 8.67845 6.73024 9.1352 7.68664 9.38115C7.79292 9.41625 7.9346 9.41625 8.04088 9.45141H8.39508C8.5722 9.45141 8.78471 9.38115 8.92644 9.31088C9.03268 9.24062 9.10351 9.24062 9.17435 9.17035L9.24524 9.10004C9.31608 9.02978 9.38692 8.99467 9.45776 8.9244C9.5286 8.85414 9.59944 8.78387 9.63488 8.71356C9.70572 8.57303 9.74111 8.39734 9.77656 8.22171V7.97576C9.77656 7.97576 9.74111 7.9406 9.67027 7.90549Z" fill="white"/>
</svg>
