<svg width="114" height="37" viewBox="0 0 114 37" fill="none" xmlns="http://www.w3.org/2000/svg">
<path fill-rule="evenodd" clip-rule="evenodd" d="M10.3044 0.116497C6.061 0.639008 2.53593 3.87889 1.67567 8.04711C0.489242 13.795 4.42989 19.3333 10.2616 20.1142C10.843 20.1921 14.6327 20.2402 20.2563 20.2411C27.7909 20.2423 29.4246 20.2717 29.9676 20.4163C32.8122 21.174 34.7938 23.5982 34.9634 26.5284C35.2605 31.6619 29.9358 35.1923 25.3191 32.9227C24.2054 32.3752 22.9343 31.1211 22.3901 30.0329C21.9255 29.104 21.5943 27.9839 21.5943 27.3418V26.9477H19.9185H18.2428V27.4319C18.2428 28.1106 18.5664 29.6029 18.9157 30.5339C20.1198 33.7443 23.1376 36.2293 26.557 36.8259C27.8804 37.0569 28.7088 37.0578 30.0152 36.8299C32.0051 36.4826 33.7284 35.6049 35.2609 34.1582C37.1523 32.3726 38.1825 30.0813 38.3174 27.3607C38.4612 24.4616 37.4687 21.892 35.4089 19.8307C34.254 18.6747 32.9913 17.8883 31.4094 17.3398L30.2723 16.9455L20.2776 16.8826L10.2829 16.8197L9.41322 16.5046C8.24857 16.0825 7.50837 15.5878 6.62106 14.6386C5.08918 12.9998 4.45826 10.5932 5.01329 8.5059C5.48035 6.74994 6.96806 4.86593 8.44811 4.15619C9.91068 3.45484 11.7934 3.25623 13.2657 3.64782C15.8959 4.34749 17.8981 6.69639 18.1901 9.4249L18.2706 10.1775H19.9499H21.629L21.5594 9.34728C21.3465 6.80576 19.9205 3.97915 18.0986 2.48732C15.844 0.641163 13.0199 -0.217828 10.3044 0.116497ZM33.4868 1.23291C32.8371 1.903 31.038 3.77192 29.4886 5.38605C27.9393 7.00017 25.2734 9.77624 23.5643 11.5551L20.4571 14.7893L22.6685 14.822L24.8799 14.8548L25.2393 14.4627C25.437 14.247 28.1351 11.4293 31.235 8.20104C38.3429 0.799043 38.8813 0.232212 38.9317 0.0976911C38.9559 0.0328863 38.0868 -0.00700358 36.8205 0.00102215L34.668 0.0145589L33.4868 1.23291ZM53.4882 13.6815C53.4566 13.7639 53.4448 15.9876 53.462 18.6227L53.4934 23.414H56.8449H60.1964V22.5156V21.6172L57.8922 21.5846L55.5881 21.5521V17.5418V13.5316H54.5669C53.8597 13.5316 53.5281 13.5777 53.4882 13.6815ZM63.4494 13.8222C62.2865 14.3922 61.7603 15.1853 61.766 16.3594C61.7728 17.7975 62.4642 18.4882 64.5891 19.1804C66.0166 19.6452 66.4805 19.9823 66.4805 20.5544C66.4805 21.4361 65.3763 21.9924 64.2363 21.6852C63.9659 21.6123 63.4762 21.3719 63.1481 21.1508L62.5514 20.7491L61.986 21.3237C61.6164 21.6992 61.4454 21.9632 61.4925 22.0859C61.5837 22.3236 62.7428 23.0702 63.404 23.317C64.1285 23.5874 65.8985 23.5908 66.6638 23.3232C67.9805 22.8628 68.6843 21.8631 68.6843 20.4531C68.6843 19.7505 68.638 19.5803 68.3261 19.1362C67.8345 18.4364 67.4198 18.1856 65.8817 17.6588C64.3928 17.1488 63.9668 16.8435 63.9668 16.2867C63.9668 15.1752 65.7781 14.9415 66.881 15.9108C67.089 16.0937 67.1358 16.0667 67.6863 15.4471L68.2708 14.7893L67.8733 14.4157C67.2498 13.8297 66.2983 13.5308 65.0695 13.5353C64.2209 13.5384 63.9191 13.5918 63.4494 13.8222ZM73.1835 18.5027V23.4739H74.2607H75.338V20.3518V17.2297L77.2285 19.663C78.2682 21.0014 79.3471 22.4062 79.6261 22.7851L80.1334 23.4739H81.0886H82.0436L82.0124 18.5327L81.9812 13.5915L80.9359 13.5568L79.8904 13.5223L79.8586 16.6448L79.8266 19.7673L78.091 17.525C77.1365 16.2917 76.0451 14.8886 75.6657 14.4071L74.9761 13.5316H74.0798H73.1835V18.5027ZM87.6069 13.6933C86.7301 13.9829 86.0661 14.3946 85.4393 15.0369C83.4461 17.08 83.5144 20.2534 85.5924 22.1539C87.6724 24.0564 90.8659 24.041 92.9008 22.1187C93.6737 21.3886 94.0735 20.7205 94.3252 19.7383C94.9147 17.4382 93.7416 15.0208 91.5298 13.9779C90.7922 13.63 90.6003 13.5928 89.4024 13.5653C88.5548 13.5459 87.9151 13.5915 87.6069 13.6933ZM95.2076 13.6385C95.2076 13.7457 95.8655 15.5479 97.8796 20.9584C98.3089 22.1113 98.6976 23.1508 98.7437 23.2684C98.8172 23.4563 98.9653 23.4781 99.9646 23.4481L101.102 23.414L102.88 18.6225C103.858 15.9872 104.66 13.7617 104.661 13.6767C104.663 13.5596 104.401 13.5308 103.57 13.557L102.476 13.5915L101.237 17.174C100.555 19.1445 99.9779 20.7763 99.954 20.8002C99.93 20.8243 99.3499 19.2121 98.6648 17.2176L97.4193 13.5915L96.3135 13.557C95.6563 13.5366 95.2076 13.5697 95.2076 13.6385ZM106.068 18.289C105.038 20.9101 104.16 23.149 104.117 23.2642C104.047 23.4546 104.144 23.4739 105.173 23.4739H106.307L106.724 22.306L107.141 21.138L108.925 21.1082C109.906 21.0918 110.775 21.1214 110.856 21.1741C110.937 21.2267 111.182 21.7522 111.399 22.3419L111.794 23.414L112.897 23.4485C113.504 23.4674 114 23.4359 114 23.3785C114 23.3211 113.142 21.0955 112.094 18.4328L110.189 13.5915L109.065 13.5574L107.941 13.5234L106.068 18.289ZM90.6028 15.6614C91.159 15.948 91.7387 16.5341 92.0505 17.1252C92.384 17.7573 92.3592 19.2944 92.0047 19.9634C91.265 21.359 89.7556 21.99 88.2421 21.5362C87.6453 21.3572 86.7713 20.5917 86.4546 19.9702C85.5748 18.2446 86.5087 16.049 88.3842 15.4331C88.8778 15.271 90.0869 15.3953 90.6028 15.6614ZM109.653 17.6889C109.937 18.4583 110.17 19.1314 110.17 19.1847C110.17 19.2379 109.652 19.2813 109.02 19.2813C108.151 19.2813 107.883 19.2447 107.923 19.1316C108.493 17.5187 109.024 16.178 109.073 16.2271C109.107 16.2616 109.368 16.9194 109.653 17.6889ZM12.617 22.973C12.1891 23.4136 9.87585 25.8222 7.47653 28.3256C5.07709 30.8289 2.43299 33.5823 1.60086 34.4443C0.768614 35.3063 0.0488778 36.0744 0.00135824 36.1513C-0.0641158 36.2574 2.22544 36.2911 9.49868 36.2911H19.0823L18.3725 35.4451C17.9822 34.9798 17.437 34.2251 17.1609 33.7681L16.6593 32.937H12.0444H7.42949L8.98387 31.3499C10.685 29.6128 15.8932 24.2003 16.9661 23.0546C17.3362 22.6593 17.6402 22.2939 17.6416 22.2423C17.6431 22.191 16.6881 22.1542 15.5197 22.1605L13.395 22.1722L12.617 22.973Z" fill="white"/>
</svg>
