<svg width="17" height="17" viewBox="0 0 17 17" fill="none" xmlns="http://www.w3.org/2000/svg">
<path fill-rule="evenodd" clip-rule="evenodd" d="M4.78889 0.0488889C5.65778 0.00888888 5.93481 0 8.14815 0C10.3615 0 10.6385 0.00962962 11.5067 0.0488889C12.3748 0.0881481 12.9674 0.226667 13.4859 0.427407C14.0289 0.632593 14.5215 0.953333 14.9289 1.36815C15.3437 1.77481 15.6637 2.26667 15.8681 2.81037C16.0696 3.32889 16.2074 3.92148 16.2474 4.78815C16.2874 5.65852 16.2963 5.93556 16.2963 8.14815C16.2963 10.3615 16.2867 10.6385 16.2474 11.5074C16.2081 12.3741 16.0696 12.9667 15.8681 13.4852C15.6637 14.029 15.3432 14.5216 14.9289 14.9289C14.5215 15.3437 14.0289 15.6637 13.4859 15.8681C12.9674 16.0696 12.3748 16.2074 11.5081 16.2474C10.6385 16.2874 10.3615 16.2963 8.14815 16.2963C5.93481 16.2963 5.65778 16.2867 4.78889 16.2474C3.92222 16.2081 3.32963 16.0696 2.81111 15.8681C2.26735 15.6637 1.77468 15.3432 1.36741 14.9289C0.952874 14.522 0.632085 14.0295 0.427407 13.4859C0.226667 12.9674 0.0888889 12.3748 0.0488889 11.5081C0.00888888 10.6378 0 10.3607 0 8.14815C0 5.93481 0.00962962 5.65778 0.0488889 4.78963C0.0881481 3.92148 0.226667 3.32889 0.427407 2.81037C0.632387 2.26673 0.953421 1.77431 1.36815 1.36741C1.77484 0.952964 2.26702 0.63218 2.81037 0.427407C3.32889 0.226667 3.92148 0.0888889 4.78815 0.0488889H4.78889ZM11.4407 1.51556C10.5815 1.4763 10.3237 1.46815 8.14815 1.46815C5.97259 1.46815 5.71482 1.4763 4.85556 1.51556C4.06074 1.55185 3.62963 1.68444 3.34222 1.7963C2.96222 1.94444 2.69037 2.12 2.40519 2.40519C2.13485 2.66819 1.9268 2.98836 1.7963 3.34222C1.68444 3.62963 1.55185 4.06074 1.51556 4.85556C1.4763 5.71482 1.46815 5.97259 1.46815 8.14815C1.46815 10.3237 1.4763 10.5815 1.51556 11.4407C1.55185 12.2356 1.68444 12.6667 1.7963 12.9541C1.92667 13.3074 2.13481 13.6281 2.40519 13.8911C2.66815 14.1615 2.98889 14.3696 3.34222 14.5C3.62963 14.6119 4.06074 14.7444 4.85556 14.7807C5.71482 14.82 5.97185 14.8281 8.14815 14.8281C10.3244 14.8281 10.5815 14.82 11.4407 14.7807C12.2356 14.7444 12.6667 14.6119 12.9541 14.5C13.3341 14.3519 13.6059 14.1763 13.8911 13.8911C14.1615 13.6281 14.3696 13.3074 14.5 12.9541C14.6119 12.6667 14.7444 12.2356 14.7807 11.4407C14.82 10.5815 14.8281 10.3237 14.8281 8.14815C14.8281 5.97259 14.82 5.71482 14.7807 4.85556C14.7444 4.06074 14.6119 3.62963 14.5 3.34222C14.3519 2.96222 14.1763 2.69037 13.8911 2.40519C13.6281 2.13487 13.3079 1.92682 12.9541 1.7963C12.6667 1.68444 12.2356 1.55185 11.4407 1.51556ZM7.10741 10.66C7.68864 10.9019 8.33584 10.9346 8.93847 10.7524C9.5411 10.5702 10.0618 10.1844 10.4116 9.66092C10.7614 9.13746 10.9186 8.50879 10.8563 7.8823C10.7941 7.25581 10.5163 6.67035 10.0704 6.22593C9.7861 5.94183 9.44238 5.72431 9.06395 5.589C8.68552 5.45369 8.2818 5.40397 7.88185 5.44342C7.4819 5.48287 7.09567 5.6105 6.75097 5.81713C6.40626 6.02377 6.11166 6.30426 5.88837 6.63841C5.66508 6.97256 5.51866 7.35207 5.45964 7.7496C5.40062 8.14714 5.43048 8.55281 5.54707 8.93742C5.66365 9.32203 5.86406 9.67601 6.13387 9.97387C6.40367 10.2717 6.73617 10.5061 7.10741 10.66ZM5.18667 5.18667C5.57557 4.79776 6.03727 4.48926 6.54541 4.27879C7.05354 4.06831 7.59815 3.95998 8.14815 3.95998C8.69815 3.95998 9.24276 4.06831 9.75089 4.27879C10.259 4.48926 10.7207 4.79776 11.1096 5.18667C11.4985 5.57557 11.807 6.03727 12.0175 6.54541C12.228 7.05354 12.3363 7.59815 12.3363 8.14815C12.3363 8.69815 12.228 9.24276 12.0175 9.75089C11.807 10.259 11.4985 10.7207 11.1096 11.1096C10.3242 11.8951 9.25892 12.3363 8.14815 12.3363C7.03738 12.3363 5.9721 11.8951 5.18667 11.1096C4.40123 10.3242 3.95998 9.25892 3.95998 8.14815C3.95998 7.03738 4.40123 5.9721 5.18667 5.18667ZM13.2652 4.5837C13.3616 4.49279 13.4387 4.38347 13.4921 4.2622C13.5454 4.14094 13.5739 4.0102 13.5759 3.87773C13.5778 3.74525 13.5531 3.61374 13.5033 3.49097C13.4535 3.3682 13.3796 3.25667 13.2859 3.16299C13.1922 3.06931 13.0807 2.99538 12.9579 2.94557C12.8352 2.89576 12.7036 2.87109 12.5712 2.87302C12.4387 2.87496 12.308 2.90345 12.1867 2.95681C12.0654 3.01018 11.9561 3.08733 11.8652 3.1837C11.6884 3.37113 11.5916 3.62009 11.5953 3.87773C11.5991 4.13536 11.7031 4.38139 11.8853 4.56359C12.0675 4.74578 12.3135 4.8498 12.5712 4.85356C12.8288 4.85731 13.0778 4.76051 13.2652 4.5837Z" fill="#2B2B2B"/>
</svg>
