<svg width="11" height="7" viewBox="0 0 11 7" fill="none" xmlns="http://www.w3.org/2000/svg">
<path d="M10.0689 0.00307109C10.0238 -0.0010237 9.97829 -0.0010237 9.93314 0.00307109H0.659118C0.599679 0.00387724 0.540635 0.0117221 0.483574 0.0263944L5.26963 4.22167L10.0689 0.00307109Z" fill="#2B2B2B"/>
<path d="M10.5591 0.408203L5.73665 4.63555C5.61253 4.74415 5.44464 4.80511 5.26963 4.80511C5.09463 4.80511 4.92673 4.74415 4.80262 4.63555L0.0231851 0.440273C0.00849217 0.487806 0.000701741 0.536786 0 0.586043V6.41687C0 6.57151 0.0697916 6.71982 0.194021 6.82917C0.318251 6.93852 0.486743 6.99995 0.66243 6.99995H9.93645C10.1121 6.99995 10.2806 6.93852 10.4049 6.82917C10.5291 6.71982 10.5989 6.57151 10.5989 6.41687V0.586043C10.5962 0.525302 10.5828 0.465297 10.5591 0.408203ZM1.1162 6.41687H0.655806V5.99996L3.06374 3.89795L3.53075 4.30902L1.1162 6.41687ZM9.92983 6.41687H9.46613L7.05157 4.30902L7.51858 3.89795L9.92652 5.99996L9.92983 6.41687Z" fill="#2B2B2B"/>
</svg>
