<svg width="16" height="16" viewBox="0 0 16 16" fill="none" xmlns="http://www.w3.org/2000/svg">
<path fill-rule="evenodd" clip-rule="evenodd" d="M5.92367 1.21777C5.2532 1.41488 4.60026 1.76967 4.47281 2.00657C3.18615 4.39462 5.82358 13.3656 8.19796 14.6773C8.72047 14.966 10.9867 14.3385 11.2651 13.8282C11.3758 13.6254 11.0976 12.7603 10.6471 11.9055C9.83965 10.374 9.81352 10.3507 8.85647 10.2984L7.88525 10.2457L7.26432 8.05015L6.64349 5.85499L7.4139 5.30753C8.16879 4.77085 8.18119 4.72494 8.03235 3.01096C7.94856 2.04891 7.71429 1.17123 7.51154 1.06062C7.30856 0.949873 6.59414 1.02065 5.92367 1.21777Z" fill="white"/>
</svg>
