<svg width="17" height="17" viewBox="0 0 17 17" fill="none" xmlns="http://www.w3.org/2000/svg">
<path d="M14.6192 2.37983C13.8687 1.62239 12.975 1.02189 11.9901 0.613315C11.0052 0.204742 9.94885 -0.00372854 8.88258 5.04712e-05C4.4146 5.04712e-05 0.773308 3.64032 0.769215 8.10932C0.769215 9.54066 1.14368 10.9331 1.85066 12.166L0.703735 16.37L5.00494 15.2425C6.19484 15.8901 7.52789 16.2295 8.88258 16.2298H8.88667C13.3557 16.2298 16.9959 12.5896 17 8.11648C17.0011 7.05043 16.7911 5.99471 16.3823 5.01016C15.9736 4.0256 15.374 3.13165 14.6182 2.37983H14.6192ZM8.88258 14.8568C7.67426 14.8572 6.48816 14.5321 5.44898 13.9155L5.20343 13.7682L2.65176 14.4373L3.33316 11.9481L3.17355 11.6913C2.49809 10.6173 2.14086 9.37392 2.14327 8.10522C2.14327 4.39538 5.16864 1.36899 8.88667 1.36899C9.77243 1.3674 10.6497 1.54115 11.468 1.88023C12.2863 2.21931 13.0294 2.71701 13.6544 3.34464C14.2816 3.96981 14.7788 4.71299 15.1174 5.53129C15.456 6.34959 15.6292 7.22682 15.627 8.11239C15.6229 11.8355 12.5975 14.8568 8.88258 14.8568ZM12.5812 9.80872C12.3796 9.70743 11.3841 9.21736 11.1969 9.14779C11.0107 9.08128 10.8746 9.0465 10.7416 9.24907C10.6055 9.45063 10.2167 9.91001 10.1001 10.042C9.98345 10.1781 9.86273 10.1934 9.66015 10.0932C9.45859 9.99084 8.80482 9.77803 8.03134 9.08538C7.4277 8.54824 7.02356 7.88321 6.90283 7.68165C6.7862 7.47907 6.89158 7.37062 6.99287 7.26933C7.08188 7.1793 7.19442 7.03197 7.29571 6.91533C7.39802 6.7987 7.43179 6.71275 7.49829 6.5777C7.56479 6.4406 7.53308 6.32397 7.48294 6.22268C7.43179 6.12139 7.02765 5.1218 6.85679 4.71869C6.69309 4.3207 6.52632 4.37594 6.4015 4.37083C6.28487 4.36367 6.14879 4.36367 6.01272 4.36367C5.90996 4.36622 5.80884 4.38999 5.7157 4.43348C5.62256 4.47696 5.53942 4.53923 5.47149 4.61638C5.28528 4.81896 4.76451 5.30903 4.76451 6.30862C4.76451 7.30821 5.49092 8.26892 5.59324 8.405C5.6935 8.54107 7.01947 10.5863 9.05446 11.4662C9.53533 11.6759 9.91388 11.7997 10.2096 11.8938C10.6955 12.0494 11.1345 12.0258 11.4844 11.9757C11.8732 11.9164 12.6825 11.4846 12.8533 11.0109C13.0211 10.5362 13.0211 10.131 12.9699 10.0461C12.9198 9.96015 12.7837 9.91001 12.5812 9.80872Z" fill="#2B2B2B"/>
</svg>
